<?xml version="1.0" encoding="utf-8"?>
<!-- Generator: Adobe Illustrator 20.1.0, SVG Export Plug-In . SVG Version: 6.00 Build 0)  -->
<!DOCTYPE svg PUBLIC "-//W3C//DTD SVG 1.1//EN" "http://www.w3.org/Graphics/SVG/1.1/DTD/svg11.dtd">
<svg version="1.1" id="Layer_1" xmlns="http://www.w3.org/2000/svg" xmlns:xlink="http://www.w3.org/1999/xlink" x="0px" y="0px"
	 viewBox="0 0 249 103" style="enable-background:new 0 0 249 103;" xml:space="preserve">
<style type="text/css">
	.st0{fill:#3B4153;}
</style>
<g>
	<path class="st0" d="M19.3,73c0,4.9-3.4,8.2-8.2,8.2S2.9,77.9,2.9,73c0-4.8,3.3-8.1,8.1-8.1S19.3,68.2,19.3,73z"/>
	<path class="st0" d="M55.4,82c0,11.9-8.4,18.3-19.2,18.2c-4.9,0-9.6-1.2-13.2-3.4l4.3-11.9c2,1.2,4,1.9,6,1.9
		c3.1,0.1,5.2-1.8,5.2-5.8V27.5h17V82z M56.5,12.4c0,5.2-3.9,8.9-9.6,8.9c-5.6,0-9.6-3.7-9.6-8.9c0-5.3,4-9,9.6-9
		C52.6,3.4,56.5,7.1,56.5,12.4z"/>
	<path class="st0" d="M124.9,53.9c0,16.3-11.6,27.1-28.9,27.1c-17.4,0-28.9-10.8-28.9-27.1c0-16.3,11.6-27,28.9-27
		C113.3,27,124.9,37.6,124.9,53.9z M84.2,54.1c0,8.2,4.8,13.7,11.9,13.7c7,0,11.8-5.5,11.8-13.7c0-8.1-4.8-13.7-11.8-13.7
		C89,40.4,84.2,46,84.2,54.1z"/>
	<path class="st0" d="M194.1,54.2c0,16.1-9.6,26.8-24.4,26.8c-6.9,0-12.5-2.7-16.2-7.7v7.1h-17V7.6h17v26.9
		c3.7-4.8,9.1-7.6,15.8-7.6C184.2,27,194.1,37.8,194.1,54.2z M177,53.7c0-8-4.8-13.7-11.9-13.7c-6.9,0-11.7,5.7-11.7,13.7
		c0,8.2,4.8,13.8,11.7,13.8C172.2,67.6,177,61.9,177,53.7z"/>
	<path class="st0" d="M245.9,32.7l-5.8,11c-6.4-3.4-12.3-5.3-16.7-5.3c-3,0-5.2,1.2-5.2,3.6c0,7.3,27.9,3.7,27.8,22.2
		c0,10.9-9.5,16.9-22.3,16.9c-8.8,0-17.4-2.6-23.7-7.5l5.4-10.8c6,4.2,12.9,6.6,18.7,6.6c3.3,0,5.8-1.2,5.8-3.6
		c0-7.8-27.4-3.7-27.3-22.3c0-10.9,9.2-16.8,21.5-16.8C231.8,26.8,239.4,28.9,245.9,32.7z"/>
</g>
</svg>
