<?xml version="1.0" encoding="UTF-8" standalone="no"?>
<svg width="68px" height="68px" viewBox="0 0 68 68" version="1.1" xmlns="http://www.w3.org/2000/svg" xmlns:xlink="http://www.w3.org/1999/xlink">
    <!-- Generator: Sketch 39.1 (31720) - http://www.bohemiancoding.com/sketch -->
    <title>arrow-right</title>
    <desc>Created with Sketch.</desc>
    <defs></defs>
    <g id="Page-1" stroke="none" stroke-width="1" fill="none" fill-rule="evenodd">
        <g id="arrow-right" fill="#000000">
            <path d="M0,34.02 C0.001,52.787 15.214,68 33.979,68 C52.746,68 67.959,52.787 67.959,34.02 C67.959,15.255 52.745,0.042 33.978,0.041 C15.213,0.041 0.001,15.255 0,34.02 L0,34.02 Z M56.012,36.486 C55.948,36.564 55.877,36.642 55.8,36.718 C55.799,36.721 38.815,53.705 38.815,53.705 C37.321,55.199 34.901,55.199 33.407,53.705 C31.915,52.212 31.915,49.791 33.407,48.299 L43.864,37.844 L14.866,37.844 C12.755,37.844 11.042,36.132 11.042,34.02 C11.042,31.91 12.755,30.198 14.866,30.198 L43.864,30.198 L33.409,19.742 C31.915,18.25 31.915,15.828 33.409,14.334 C34.901,12.843 37.321,12.843 38.813,14.334 L55.795,31.317 C55.877,31.398 55.948,31.477 56.015,31.56 C56.045,31.593 56.073,31.629 56.1,31.664 C56.634,32.386 56.914,33.167 56.916,34.02 C56.914,34.874 56.633,35.658 56.161,36.294 C56.081,36.4 56.049,36.444 56.012,36.486 Z" id="Shape"></path>
        </g>
    </g>
</svg>