<?xml version="1.0" encoding="UTF-8" standalone="no"?>
<svg width="22px" height="22px" viewBox="0 0 22 22" version="1.1" xmlns="http://www.w3.org/2000/svg" xmlns:xlink="http://www.w3.org/1999/xlink">
    <path fill="#444545" d="M4.125,0 L6.875,0 L6.875,2.75 L4.125,2.75 L4.125,0 Z M15.125,0 L17.875,0 L17.875,2.75 L15.125,2.75 L15.125,0 Z M20.625,1.375 L19.25,1.375 L19.25,2.75 C19.25,3.5096875 18.6346875,4.125 17.875,4.125 L15.125,4.125 C14.3653125,4.125 13.75,3.5096875 13.75,2.75 L13.75,1.375 L8.25,1.375 L8.25,2.75 C8.25,3.5096875 7.6346875,4.125 6.875,4.125 L4.125,4.125 C3.3653125,4.125 2.75,3.5096875 2.75,2.75 L2.75,1.375 L1.3743125,1.375 C0.614625,1.375 0,1.9903125 0,2.75 L0,20.625 C0,21.3846875 0.614625,22 1.3743125,22 L20.625,22 C21.3846875,22 22,21.3846875 22,20.625 L22,2.75 C22,1.9903125 21.3846875,1.375 20.625,1.375 Z M6.875,17.875 L4.125,17.875 L4.125,15.125 L6.875,15.125 L6.875,17.875 L6.875,17.875 Z M6.875,12.375 L4.125,12.375 L4.125,9.625 L6.875,9.625 L6.875,12.375 L6.875,12.375 Z M12.375,17.875 L9.625,17.875 L9.625,15.125 L12.375,15.125 L12.375,17.875 L12.375,17.875 Z M12.375,12.375 L9.625,12.375 L9.625,9.625 L12.375,9.625 L12.375,12.375 L12.375,12.375 Z M17.875,17.875 L15.125,17.875 L15.125,15.125 L17.875,15.125 L17.875,17.875 L17.875,17.875 Z M17.875,12.375 L15.125,12.375 L15.125,9.625 L17.875,9.625 L17.875,12.375 L17.875,12.375 Z" id="Rectangle-path"></path>
</svg>
