<?xml version="1.0" encoding="UTF-8" standalone="no"?>
<svg width="25px" height="20px" viewBox="0 0 15 20" version="1.1" xmlns="http://www.w3.org/2000/svg" xmlns:xlink="http://www.w3.org/1999/xlink">
    <g id="Symbols" stroke="none" stroke-width="1" fill="none" fill-rule="evenodd">
        <g id="noun_586328_cc" transform="translate(-5.000000, 0.000000)">
            <rect id="Rectangle-3" x="0" y="0" width="25" height="20"></rect>
            <path d="M15.1572431,0.00729166667 L7.95680138,0.00729166667 C6.72070538,0.00729166667 5.71498648,1.18416667 5.71498648,2.63083333 L5.71498648,17.3689583 C5.71498648,18.815625 6.72052734,19.9927083 7.95680138,19.9927083 L17.1361005,19.9927083 C18.3721965,19.9927083 19.3779154,18.8158333 19.3779154,17.3689583 L19.3779154,5.52770833 L15.1572431,0.00729166667 L15.1572431,0.00729166667 Z M15.4524249,2.26833333 L17.649197,5.14145833 L15.4524249,5.14145833 L15.4524249,2.26833333 L15.4524249,2.26833333 Z M17.1361005,18.7427083 L7.95680138,18.7427083 C7.30964468,18.7427083 6.78319561,18.1264583 6.78319561,17.3689583 L6.78319561,2.63083333 C6.78319561,1.87354167 7.30964468,1.25729167 7.95680138,1.25729167 L14.3842157,1.25729167 L14.3842157,6.39145833 L18.3097063,6.39145833 L18.3097063,17.3689583 C18.3097063,18.1264583 17.7832572,18.7427083 17.1361005,18.7427083 L17.1361005,18.7427083 Z" id="Shape" fill="#4A4A4A"></path>
            <rect id="Rectangle-path" fill="#4A4A4A" x="8.08819111" y="5.77651515" width="5.34104567" height="1.25"></rect>
            <rect id="Rectangle-path" fill="#4A4A4A" x="8.08819111" y="14.9431818" width="8.90174279" height="1.25"></rect>
            <rect id="Rectangle-path" fill="#4A4A4A" x="8.08819111" y="11.875" width="8.90174279" height="1.25"></rect>
            <rect id="Rectangle-path" fill="#4A4A4A" x="8.13269982" y="8.78787879" width="8.90174279" height="1.25"></rect>
        </g>
    </g>
</svg>