<?xml version="1.0" encoding="UTF-8" standalone="no"?>
<svg width="67px" height="90px" viewBox="0 0 67 90" version="1.1" xmlns="http://www.w3.org/2000/svg" xmlns:xlink="http://www.w3.org/1999/xlink">
    <!-- Generator: Sketch 39.1 (31720) - http://www.bohemiancoding.com/sketch -->
    <title>noun_586328_cc</title>
    <desc>Created with Sketch.</desc>
    <defs></defs>
    <g id="Symbols" stroke="none" stroke-width="1" fill="none" fill-rule="evenodd">
        <g id="noun_586328_cc" transform="translate(-27.000000, 0.000000)">
            <rect id="Rectangle-3" x="0" y="0" width="120" height="90"></rect>
            <path d="M72.7547668,0.0328125 L38.1926466,0.0328125 C32.2593858,0.0328125 27.4319351,5.32875 27.4319351,11.83875 L27.4319351,78.1603125 C27.4319351,84.6703125 32.2585313,89.9671875 38.1926466,89.9671875 L82.2532825,89.9671875 C88.1865433,89.9671875 93.013994,84.67125 93.013994,78.1603125 L93.013994,24.8746875 L72.7547668,0.0328125 L72.7547668,0.0328125 Z M74.1716394,10.2075 L84.7161454,23.1365625 L74.1716394,23.1365625 L74.1716394,10.2075 L74.1716394,10.2075 Z M82.2532825,84.3421875 L38.1926466,84.3421875 C35.0862945,84.3421875 32.5593389,81.5690625 32.5593389,78.1603125 L32.5593389,11.83875 C32.5593389,8.4309375 35.0862945,5.6578125 38.1926466,5.6578125 L69.0442356,5.6578125 L69.0442356,28.7615625 L87.8865901,28.7615625 L87.8865901,78.1603125 C87.8865901,81.5690625 85.3596346,84.3421875 82.2532825,84.3421875 L82.2532825,84.3421875 Z" id="Shape" fill="#4A4A4A"></path>
            <rect id="Rectangle-path" fill="#4A4A4A" x="38.8233173" y="25.9943182" width="25.6370192" height="5.625"></rect>
            <rect id="Rectangle-path" fill="#4A4A4A" x="38.8233173" y="67.2443182" width="42.7283654" height="5.625"></rect>
            <rect id="Rectangle-path" fill="#4A4A4A" x="38.8233173" y="53.4375" width="42.7283654" height="5.625"></rect>
            <rect id="Rectangle-path" fill="#4A4A4A" x="39.0369591" y="39.5454545" width="42.7283654" height="5.625"></rect>
        </g>
    </g>
</svg>