<?xml version="1.0" encoding="utf-8"?>
<svg version="1.1" id="Layer_1" xmlns="http://www.w3.org/2000/svg" xmlns:xlink="http://www.w3.org/1999/xlink" x="0px" y="0px"
	 viewBox="0 0 153.2 85.5">
<style type="text/css">
	.direct-employers-blue{fill:#1A93F4;}
	.primary-navy-blue{fill:#3a4153;}
</style>
<g>
	<path class="direct-employers-blue" d="M16.4,59.8c0,4.4-3.2,7.4-7.7,7.4S1,64.2,1,59.8c0-4.3,3.1-7.3,7.6-7.3S16.4,55.5,16.4,59.8z"/>
	<path class="primary-navy-blue" d="M33.5,67.9c0,10.7-7.9,16.4-18.1,16.3c-4.6,0-9-1.1-12.4-3.1l4-9.8c1.9,1.1,3.8,1.7,5.6,1.7
		c2.9,0.1,6.8-1.6,6.8-5.2L18.5,19h15.1L33.5,67.9L33.5,67.9z M34.5,9c0,4.7-3.7,8-9,8c-5.3,0-9-3.3-9-8c0-4.8,3.8-8.1,9-8.1
		C30.8,0.9,34.5,4.3,34.5,9z"/>
	<path class="primary-navy-blue" d="M70.7,42.7c0,14.6-1.5,24.3-17.8,24.3c-16.4,0-17.8-9.7-17.8-24.3s1.5-24.2,17.8-24.2
		C69.2,18.5,70.7,28.1,70.7,42.7z M47.4,42.9c0,7.4-1.1,12.3,5.6,12.3c6.6,0,5.5-4.9,5.5-12.3c0-7.3,1.1-12.3-5.5-12.3
		C46.3,30.6,47.4,35.6,47.4,42.9z"/>
	<path class="primary-navy-blue" d="M109.5,43c0,14.5-1.5,24.4-15.4,24.1c-10-0.2-9.1-4-9.6-7.8v7.3H72.2V1.1h13.2v24.1c-0.4,0.4,1.8-6.8,9.2-6.8
		C108.6,18.5,109.5,28.2,109.5,43z M98.1,42.5c0-7.2,0.2-12.3-6.5-12.3c-6.5,0-6.3,5.1-6.3,12.3c0,7.4-0.2,12.4,6.3,12.4
		C98.3,55,98.1,49.9,98.1,42.5z"/>
	<path class="primary-navy-blue" d="M151.7,23.7l-5.5,9.9c-6-3.1-11.6-4.8-15.7-4.8c-2.8,0-4.9,1.1-4.9,3.2c0,6.6,26.3,3.3,26.2,19.9
		c0,9.8-8.9,15.2-21,15.2c-8.3,0-16.4-2.3-22.3-6.7l5.1-9.7c5.6,3.8,12.1,5.9,17.6,5.9c3.1,0,5.5-1.1,5.5-3.2c0-7-25.8-3.3-25.7-20
		c0-9.8,8.7-15.1,20.2-15.1C138.4,18.4,145.5,20.2,151.7,23.7z"/>
</g>
</svg>