<?xml version="1.0" encoding="utf-8"?>
<svg version="1.1" id="Layer_1" xmlns="http://www.w3.org/2000/svg" xmlns:xlink="http://www.w3.org/1999/xlink" x="0px" y="0px"
	 viewBox="0 0 43.2 21.1" style="enable-background:new 0 0 43.2 21.1;" xml:space="preserve">
<style type="text/css">
	.direct-employers-light-blue{fill:#1A93F4;}
	.direct-employers-navy{fill:#444545;}
</style>
<g>
	<g>
		<circle class="direct-employers-light-blue" cx="2" cy="15.2" r="2"/>
		<path class="direct-employers-navy" d="M5.3,5.1h3.9v12.5c0,2.7-1.6,3-3.6,3c-0.6,0-1.2,0-1.8-0.1v-2.6c1,0,1.5-0.1,1.5-0.8L5.3,5.1z"/>
		<circle class="direct-employers-navy" cx="7.2" cy="2.4" r="2"/>
		<path class="direct-employers-navy" d="M15.5,17.1c-4.6,0-5-2.8-5-6.2c0-3.1,0.6-6.1,5-6.1c4.6,0,5,2.8,5,6.2C20.4,14.1,19.8,17.1,15.5,17.1z
			 M15.5,14.6c0.9,0,1.1-0.7,1.1-3.6s-0.2-3.6-1.1-3.6S14.4,8,14.4,11S14.6,14.6,15.5,14.6z"/>
		<path class="direct-employers-navy" d="M21.7,1.4h3.9v5.1l0,0c0.3-1,1.3-1.7,2.4-1.6c2.2,0,3.6,1.4,3.6,5.9c0,4.3-0.9,6.4-3.5,6.4
			c-1.2,0.1-2.3-0.7-2.6-1.9l0,0v1.6h-3.8V1.4z M26.7,14.2c0.9,0,1.1-0.7,1.1-3.2s-0.2-3.3-1.1-3.3s-1.1,0.7-1.1,3.3
			S25.8,14.2,26.7,14.2L26.7,14.2z"/>
		<path class="direct-employers-navy" d="M35.9,13.2c0,0.4,0.1,0.8,0.3,1.2c0.2,0.3,0.5,0.4,0.8,0.4c0.5,0.1,1-0.3,1.1-0.9c0,0,0-0.1,0-0.1
			c0-2.1-5.7-0.8-5.7-5.3c0-2,1.5-3.7,4.7-3.7c2.9,0,4.4,1.3,4.4,3.7h-3.3c0-1-0.4-1.3-1-1.3c-0.5-0.1-0.9,0.3-1,0.8
			c0,0,0,0.1,0,0.1c0,1.9,5.7,0.6,5.7,5.1c0,2.3-1.8,3.9-4.7,3.9c-3.3,0-4.6-1.4-4.6-3.9L35.9,13.2z"/>
	</g>
</g>
</svg>
