<svg xmlns="http://www.w3.org/2000/svg" xmlns:xlink="http://www.w3.org/1999/xlink" viewBox="0 0 100 100" enable-background="new 0 0 100 100" xml:space="preserve" width="16px" height="16px"><path fill="#990000" d="M50,1C22.938,1,1,22.938,1,50c0,27.062,21.938,49,49,49c27.062,0,49-21.938,49-49C99,22.938,77.062,1,50,1z   M50,83.709c-4.164,0-7.54-3.376-7.54-7.54s3.376-7.54,7.54-7.54c4.164,0,7.54,3.376,7.54,7.54S54.164,83.709,50,83.709z   M57.54,55.297c0,4.164-3.376,7.541-7.54,7.541c-4.164,0-7.54-3.377-7.54-7.541V23.831c0-4.164,3.376-7.54,7.54-7.54  c4.164,0,7.54,3.376,7.54,7.54V55.297z"></path></svg>
