<?xml version="1.0" encoding="UTF-8" standalone="no"?>
<svg width="21px" height="18px" viewBox="0 0 21 18" version="1.1" xmlns="http://www.w3.org/2000/svg" xmlns:xlink="http://www.w3.org/1999/xlink">
    <!-- Generator: Sketch 39.1 (31720) - http://www.bohemiancoding.com/sketch -->
    <title>business</title>
    <desc>Created with Sketch.</desc>
    <defs></defs>
    <g id="Symbols" stroke="none" stroke-width="1" fill="none" fill-rule="evenodd">
        <g id="Partner-Selected" transform="translate(-7.000000, -10.000000)" fill="#444545">
            <g id="business" transform="translate(7.000000, 10.000000)">
                <path d="M6.5,10 L4.5,10 C4.224,10 4,10.224 4,10.5 L4,13.5 C4,13.776 4.224,14 4.5,14 L6.5,14 C6.776,14 7,13.776 7,13.5 L7,10.5 C7,10.224 6.776,10 6.5,10 L6.5,10 Z M6,13 L5,13 L5,11 L6,11 L6,13 L6,13 Z" id="Shape"></path>
                <path d="M14.5,14 L16.5,14 C16.776,14 17,13.776 17,13.5 L17,10.5 C17,10.224 16.776,10 16.5,10 L14.5,10 C14.224,10 14,10.224 14,10.5 L14,13.5 C14,13.776 14.224,14 14.5,14 L14.5,14 Z M15,11 L16,11 L16,13 L15,13 L15,11 L15,11 Z" id="Shape"></path>
                <path d="M6.5,4 L4.5,4 C4.224,4 4,4.224 4,4.5 L4,7.5 C4,7.776 4.224,8 4.5,8 L6.5,8 C6.776,8 7,7.776 7,7.5 L7,4.5 C7,4.224 6.776,4 6.5,4 L6.5,4 Z M6,7 L5,7 L5,5 L6,5 L6,7 L6,7 Z" id="Shape"></path>
                <path d="M14.5,8 L16.5,8 C16.776,8 17,7.776 17,7.5 L17,4.5 C17,4.224 16.776,4 16.5,4 L14.5,4 C14.224,4 14,4.224 14,4.5 L14,7.5 C14,7.776 14.224,8 14.5,8 L14.5,8 Z M15,5 L16,5 L16,7 L15,7 L15,5 L15,5 Z" id="Shape"></path>
                <path d="M11.5,10 L9.5,10 C9.224,10 9,10.224 9,10.5 L9,13.5 C9,13.776 9.224,14 9.5,14 L11.5,14 C11.776,14 12,13.776 12,13.5 L12,10.5 C12,10.224 11.776,10 11.5,10 L11.5,10 Z M11,13 L10,13 L10,11 L11,11 L11,13 L11,13 Z" id="Shape"></path>
                <path d="M11.5,4 L9.5,4 C9.224,4 9,4.224 9,4.5 L9,7.5 C9,7.776 9.224,8 9.5,8 L11.5,8 C11.776,8 12,7.776 12,7.5 L12,4.5 C12,4.224 11.776,4 11.5,4 L11.5,4 Z M11,7 L10,7 L10,5 L11,5 L11,7 L11,7 Z" id="Shape"></path>
                <path d="M19,17 L19,2.5 C19,1.673 18.327,1 17.5,1 L16,1 L16,0.5 C16,0.224 15.776,0 15.5,0 L5.5,0 C5.224,0 5,0.224 5,0.5 L5,1 L3.5,1 C2.673,1 2,1.673 2,2.5 L2,17 L0.5,17 C0.224,17 0,17.224 0,17.5 C0,17.776 0.224,18 0.5,18 L2.5,18 L18.5,18 L20.5,18 C20.776,18 21,17.776 21,17.5 C21,17.224 20.776,17 20.5,17 L19,17 Z M3,17 L3,2.5 C3,2.224 3.224,2 3.5,2 L5.5,2 C5.776,2 6,1.776 6,1.5 L6,1 L15,1 L15,1.5 C15,1.776 15.224,2 15.5,2 L17.5,2 C17.776,2 18,2.224 18,2.5 L18,17 L3,17 Z" id="Shape"></path>
            </g>
        </g>
    </g>
</svg>