<?xml version="1.0" encoding="UTF-8" standalone="no"?>
<svg width="104px" height="90px" viewBox="0 0 104 90" version="1.1" xmlns="http://www.w3.org/2000/svg" xmlns:xlink="http://www.w3.org/1999/xlink">
    <!-- Generator: Sketch 39.1 (31720) - http://www.bohemiancoding.com/sketch -->
    <title>business</title>
    <desc>Created with Sketch.</desc>
    <defs></defs>
    <g id="Symbols" stroke="none" stroke-width="1" fill="none" fill-rule="evenodd">
        <g id="business" transform="translate(-8.000000, 0.000000)">
            <rect id="Rectangle-6" x="0" y="0" width="120" height="90"></rect>
            <path d="M40.083986,50 L30.2119903,50 C28.8496549,50 27.7439914,51.12 27.7439914,52.5 L27.7439914,67.5 C27.7439914,68.88 28.8496549,70 30.2119903,70 L40.083986,70 C41.4463214,70 42.5519849,68.88 42.5519849,67.5 L42.5519849,52.5 C42.5519849,51.12 41.4463214,50 40.083986,50 L40.083986,50 Z M37.615987,65 L32.6799892,65 L32.6799892,55 L37.615987,55 L37.615987,65 L37.615987,65 Z" id="Shape" fill="#444545"></path>
            <path d="M79.5719687,70 L89.4439644,70 C90.8062998,70 91.9119633,68.88 91.9119633,67.5 L91.9119633,52.5 C91.9119633,51.12 90.8062998,50 89.4439644,50 L79.5719687,50 C78.2096333,50 77.1039698,51.12 77.1039698,52.5 L77.1039698,67.5 C77.1039698,68.88 78.2096333,70 79.5719687,70 L79.5719687,70 Z M82.0399676,55 L86.9759654,55 L86.9759654,65 L82.0399676,65 L82.0399676,55 L82.0399676,55 Z" id="Shape" fill="#444545"></path>
            <path d="M40.083986,20 L30.2119903,20 C28.8496549,20 27.7439914,21.12 27.7439914,22.5 L27.7439914,37.5 C27.7439914,38.88 28.8496549,40 30.2119903,40 L40.083986,40 C41.4463214,40 42.5519849,38.88 42.5519849,37.5 L42.5519849,22.5 C42.5519849,21.12 41.4463214,20 40.083986,20 L40.083986,20 Z M37.615987,35 L32.6799892,35 L32.6799892,25 L37.615987,25 L37.615987,35 L37.615987,35 Z" id="Shape" fill="#444545"></path>
            <path d="M79.5719687,40 L89.4439644,40 C90.8062998,40 91.9119633,38.88 91.9119633,37.5 L91.9119633,22.5 C91.9119633,21.12 90.8062998,20 89.4439644,20 L79.5719687,20 C78.2096333,20 77.1039698,21.12 77.1039698,22.5 L77.1039698,37.5 C77.1039698,38.88 78.2096333,40 79.5719687,40 L79.5719687,40 Z M82.0399676,25 L86.9759654,25 L86.9759654,35 L82.0399676,35 L82.0399676,25 L82.0399676,25 Z" id="Shape" fill="#444545"></path>
            <path d="M64.7639752,50 L54.8919795,50 C53.5296441,50 52.4239806,51.12 52.4239806,52.5 L52.4239806,67.5 C52.4239806,68.88 53.5296441,70 54.8919795,70 L64.7639752,70 C66.1263106,70 67.2319741,68.88 67.2319741,67.5 L67.2319741,52.5 C67.2319741,51.12 66.1263106,50 64.7639752,50 L64.7639752,50 Z M62.2959762,65 L57.3599784,65 L57.3599784,55 L62.2959762,55 L62.2959762,65 L62.2959762,65 Z" id="Shape" fill="#444545"></path>
            <path d="M64.7639752,20 L54.8919795,20 C53.5296441,20 52.4239806,21.12 52.4239806,22.5 L52.4239806,37.5 C52.4239806,38.88 53.5296441,40 54.8919795,40 L64.7639752,40 C66.1263106,40 67.2319741,38.88 67.2319741,37.5 L67.2319741,22.5 C67.2319741,21.12 66.1263106,20 64.7639752,20 L64.7639752,20 Z M62.2959762,35 L57.3599784,35 L57.3599784,25 L62.2959762,25 L62.2959762,35 L62.2959762,35 Z" id="Shape" fill="#444545"></path>
            <path d="M101.783959,85 L101.783959,12.5 C101.783959,8.365 98.4620324,5 94.3799622,5 L86.9759654,5 L86.9759654,2.5 C86.9759654,1.12 85.8703019,0 84.5079665,0 L35.1479881,0 C33.7856527,0 32.6799892,1.12 32.6799892,2.5 L32.6799892,5 L25.2759924,5 C21.1939222,5 17.8719957,8.365 17.8719957,12.5 L17.8719957,85 L10.4679989,85 C9.10566352,85 8,86.12 8,87.5 C8,88.88 9.10566352,90 10.4679989,90 L20.3399946,90 L99.31596,90 L109.187956,90 C110.550291,90 111.655955,88.88 111.655955,87.5 C111.655955,86.12 110.550291,85 109.187956,85 L101.783959,85 Z M22.8079935,85 L22.8079935,12.5 C22.8079935,11.12 23.913657,10 25.2759924,10 L35.1479881,10 C36.5103235,10 37.615987,8.88 37.615987,7.5 L37.615987,5 L82.0399676,5 L82.0399676,7.5 C82.0399676,8.88 83.1456311,10 84.5079665,10 L94.3799622,10 C95.7422976,10 96.8479611,11.12 96.8479611,12.5 L96.8479611,85 L22.8079935,85 Z" id="Shape" fill="#444545"></path>
        </g>
    </g>
</svg>