<?xml version="1.0" encoding="UTF-8" standalone="no"?>
<svg width="23px" height="20px" viewBox="0 0 23 20" version="1.1" xmlns="http://www.w3.org/2000/svg" xmlns:xlink="http://www.w3.org/1999/xlink">
    <g id="Symbols" stroke="none" stroke-width="1" fill="none" fill-rule="evenodd">
        <g id="business" transform="translate(-1.000000, 0.000000)">
            <rect id="Rectangle-6" x="0" y="0" width="25" height="20"></rect>
            <path d="M8.35083041,11.1111111 L6.29416464,11.1111111 C6.01034477,11.1111111 5.7799982,11.36 5.7799982,11.6666667 L5.7799982,15 C5.7799982,15.3066667 6.01034477,15.5555556 6.29416464,15.5555556 L8.35083041,15.5555556 C8.63465028,15.5555556 8.86499685,15.3066667 8.86499685,15 L8.86499685,11.6666667 C8.86499685,11.36 8.63465028,11.1111111 8.35083041,11.1111111 L8.35083041,11.1111111 Z M7.83666397,14.4444444 L6.80833108,14.4444444 L6.80833108,12.2222222 L7.83666397,12.2222222 L7.83666397,14.4444444 L7.83666397,14.4444444 Z" id="Shape" fill="#444545"></path>
            <path d="M16.5774935,15.5555556 L18.6341592,15.5555556 C18.9179791,15.5555556 19.1483257,15.3066667 19.1483257,15 L19.1483257,11.6666667 C19.1483257,11.36 18.9179791,11.1111111 18.6341592,11.1111111 L16.5774935,11.1111111 C16.2936736,11.1111111 16.063327,11.36 16.063327,11.6666667 L16.063327,15 C16.063327,15.3066667 16.2936736,15.5555556 16.5774935,15.5555556 L16.5774935,15.5555556 Z M17.0916599,12.2222222 L18.1199928,12.2222222 L18.1199928,14.4444444 L17.0916599,14.4444444 L17.0916599,12.2222222 L17.0916599,12.2222222 Z" id="Shape" fill="#444545"></path>
            <path d="M8.35083041,4.44444444 L6.29416464,4.44444444 C6.01034477,4.44444444 5.7799982,4.69333333 5.7799982,5 L5.7799982,8.33333333 C5.7799982,8.64 6.01034477,8.88888889 6.29416464,8.88888889 L8.35083041,8.88888889 C8.63465028,8.88888889 8.86499685,8.64 8.86499685,8.33333333 L8.86499685,5 C8.86499685,4.69333333 8.63465028,4.44444444 8.35083041,4.44444444 L8.35083041,4.44444444 Z M7.83666397,7.77777778 L6.80833108,7.77777778 L6.80833108,5.55555556 L7.83666397,5.55555556 L7.83666397,7.77777778 L7.83666397,7.77777778 Z" id="Shape" fill="#444545"></path>
            <path d="M16.5774935,8.88888889 L18.6341592,8.88888889 C18.9179791,8.88888889 19.1483257,8.64 19.1483257,8.33333333 L19.1483257,5 C19.1483257,4.69333333 18.9179791,4.44444444 18.6341592,4.44444444 L16.5774935,4.44444444 C16.2936736,4.44444444 16.063327,4.69333333 16.063327,5 L16.063327,8.33333333 C16.063327,8.64 16.2936736,8.88888889 16.5774935,8.88888889 L16.5774935,8.88888889 Z M17.0916599,5.55555556 L18.1199928,5.55555556 L18.1199928,7.77777778 L17.0916599,7.77777778 L17.0916599,5.55555556 L17.0916599,5.55555556 Z" id="Shape" fill="#444545"></path>
            <path d="M13.4924948,11.1111111 L11.4358291,11.1111111 C11.1520092,11.1111111 10.9216626,11.36 10.9216626,11.6666667 L10.9216626,15 C10.9216626,15.3066667 11.1520092,15.5555556 11.4358291,15.5555556 L13.4924948,15.5555556 C13.7763147,15.5555556 14.0066613,15.3066667 14.0066613,15 L14.0066613,11.6666667 C14.0066613,11.36 13.7763147,11.1111111 13.4924948,11.1111111 L13.4924948,11.1111111 Z M12.9783284,14.4444444 L11.9499955,14.4444444 L11.9499955,12.2222222 L12.9783284,12.2222222 L12.9783284,14.4444444 L12.9783284,14.4444444 Z" id="Shape" fill="#444545"></path>
            <path d="M13.4924948,4.44444444 L11.4358291,4.44444444 C11.1520092,4.44444444 10.9216626,4.69333333 10.9216626,5 L10.9216626,8.33333333 C10.9216626,8.64 11.1520092,8.88888889 11.4358291,8.88888889 L13.4924948,8.88888889 C13.7763147,8.88888889 14.0066613,8.64 14.0066613,8.33333333 L14.0066613,5 C14.0066613,4.69333333 13.7763147,4.44444444 13.4924948,4.44444444 L13.4924948,4.44444444 Z M12.9783284,7.77777778 L11.9499955,7.77777778 L11.9499955,5.55555556 L12.9783284,5.55555556 L12.9783284,7.77777778 L12.9783284,7.77777778 Z" id="Shape" fill="#444545"></path>
            <path d="M21.2049914,18.8888889 L21.2049914,2.77777778 C21.2049914,1.85888889 20.5129234,1.11111111 19.6624921,1.11111111 L18.1199928,1.11111111 L18.1199928,0.555555556 C18.1199928,0.248888889 17.8896462,0 17.6058264,0 L7.32249752,0 C7.03867765,0 6.80833108,0.248888889 6.80833108,0.555555556 L6.80833108,1.11111111 L5.26583176,1.11111111 C4.41540046,1.11111111 3.72333243,1.85888889 3.72333243,2.77777778 L3.72333243,18.8888889 L2.18083311,18.8888889 C1.89701323,18.8888889 1.66666667,19.1377778 1.66666667,19.4444444 C1.66666667,19.7511111 1.89701323,20 2.18083311,20 L4.23749887,20 L20.690825,20 L22.7474908,20 C23.0313106,20 23.2616572,19.7511111 23.2616572,19.4444444 C23.2616572,19.1377778 23.0313106,18.8888889 22.7474908,18.8888889 L21.2049914,18.8888889 Z M4.75166532,18.8888889 L4.75166532,2.77777778 C4.75166532,2.47111111 4.98201188,2.22222222 5.26583176,2.22222222 L7.32249752,2.22222222 C7.6063174,2.22222222 7.83666397,1.97333333 7.83666397,1.66666667 L7.83666397,1.11111111 L17.0916599,1.11111111 L17.0916599,1.66666667 C17.0916599,1.97333333 17.3220065,2.22222222 17.6058264,2.22222222 L19.6624921,2.22222222 C19.946312,2.22222222 20.1766586,2.47111111 20.1766586,2.77777778 L20.1766586,18.8888889 L4.75166532,18.8888889 Z" id="Shape" fill="#444545"></path>
        </g>
    </g>
</svg>